<svg width="37" height="35" viewBox="0 0 37 35" fill="none" xmlns="http://www.w3.org/2000/svg">
<path fill-rule="evenodd" clip-rule="evenodd" d="M34.6865 18.7982C36.1315 20.4682 37.0001 22.6591 37.0001 25.0466C37.0001 30.2913 32.784 34.5408 27.5806 34.5408C24.7077 34.5408 22.1272 33.251 20.3984 31.2053C18.0298 28.3907 14.4874 26.6055 10.5382 26.6055C6.5467 26.6055 2.9831 28.4292 0.614502 31.2949C2.9492 21.1814 11.945 13.6475 22.6865 13.6475C22.9916 13.6475 23.2925 13.6347 23.5933 13.6475C28.034 13.6518 32.0043 15.6548 34.6865 18.7982ZM1.3391 7.5999C1.3391 3.68343 4.4916 0.505859 8.3772 0.505859C12.2628 0.505859 15.4154 3.68343 15.4154 7.5999C15.4154 10.3034 13.9238 12.6609 11.7162 13.8568C7.02981 16.3809 3.3433 20.5408 1.3772 25.5634C1.3815 19.7976 1.3391 9.778 1.3391 7.5999Z" fill="#EC008C"/>
</svg>
