<svg width="79" height="99" viewBox="0 0 79 99" fill="none" xmlns="http://www.w3.org/2000/svg">
    <g clip-path="url(#clip0_275_1110)">
        <path fill-rule="evenodd" clip-rule="evenodd"
            d="M76.6865 22.7982C78.1315 24.4682 79.0001 26.6591 79.0001 29.0466C79.0001 34.2913 74.784 38.5408 69.5806 38.5408C66.7077 38.5408 64.1272 37.251 62.3984 35.2053C60.0298 32.3907 56.4874 30.6055 52.5382 30.6055C48.5467 30.6055 44.9831 32.4292 42.6145 35.2949C44.9492 25.1814 53.945 17.6475 64.6865 17.6475C64.9916 17.6475 65.2925 17.6347 65.5933 17.6475C70.034 17.6518 74.0043 19.6548 76.6865 22.7982ZM43.3391 11.5999C43.3391 7.68343 46.4916 4.50586 50.3772 4.50586C54.2628 4.50586 57.4154 7.68343 57.4154 11.5999C57.4154 14.3034 55.9238 16.6609 53.7162 17.8568C49.0298 20.3809 45.3433 24.5408 43.3772 29.5634C43.3815 23.7976 43.3391 13.778 43.3391 11.5999Z"
            fill="#EC008C" />
        <path
            d="M14.9619 45.4255C15 42.3761 13.0085 40.7702 9.7161 40.7531C6.41949 40.7702 4.4322 42.3761 4.47034 45.4255V52.9253C4.4322 55.9747 6.42373 57.5806 9.7161 57.5977C13.0127 57.5806 15 55.9747 14.9619 52.9253V45.4255ZM12.1864 61.8173C11.2585 61.9925 10.3941 62.048 9.76271 62.0522C10.5847 62.048 11.3983 61.9711 12.1864 61.8173ZM9.76271 62.048C4.74153 62.048 0 59.1651 0 52.921V48.0052V45.4298C0.0254237 39.1644 4.75847 36.2986 9.76271 36.2986C14.7839 36.2986 19.5254 39.1814 19.5254 45.4298V52.9167C19.5254 53.2926 19.5085 53.6513 19.4746 54.0016V59.6733V60.1901C19.4746 65.8961 16.1992 69.5349 11.1483 69.2573C10.2288 69.1633 9.50424 68.4544 9.50424 67.5318V66.8314C9.50424 65.879 10.2839 65.1059 11.2246 65.1017C13.6398 65.1615 14.8898 63.483 15.0424 60.8051C14.1441 61.3176 13.1271 61.6252 12.1822 61.8045C11.3983 61.9711 10.5847 62.048 9.76271 62.048ZM15.0593 15.6401C15.0975 12.6889 13.0508 11.066 9.7161 11.066C6.45339 11.066 4.41949 12.6676 4.41949 15.7426L4.41525 20.7268V22.969V23.3406C4.37712 26.2918 6.42373 27.9148 9.75847 27.9148C13.0212 27.9148 15.0551 26.3132 15.0551 23.2381V16.0117V15.6401H15.0593ZM0 15.7469C0 9.5028 4.74153 6.61566 9.7161 6.61566C11.8178 6.61566 13.2542 7.11109 15.0593 8.14038V1.72545C15.0593 0.773037 15.8263 0 16.7712 0H17.7627C18.7076 0 19.4746 0.773037 19.4746 1.72545V23.2381C19.4746 29.4822 14.7331 32.3693 9.75847 32.3693C4.74153 32.3693 0 29.4865 0 23.2381V20.6969V15.7469ZM36.1314 45.4255C36.1695 42.3761 34.178 40.7702 30.8856 40.7531C27.589 40.7702 25.6017 42.3761 25.6398 45.4255V52.9253C25.6017 55.9747 27.5932 57.5806 30.8856 57.5977C34.1822 57.5806 36.1737 55.9747 36.1314 52.9253V45.4255ZM21.1695 45.4298C21.1695 39.1814 25.911 36.2986 30.9322 36.2986C35.9534 36.2986 40.6949 39.1814 40.6949 45.4298V46.0704V52.9167V60.3225C40.6949 61.2749 39.928 62.048 38.983 62.048H37.9915C37.2754 62.048 36.661 61.6038 36.4068 60.976C35.0254 61.6978 32.6822 62.048 30.9364 62.048C25.9153 62.048 21.1737 59.1651 21.1737 52.9167V45.4298H21.1695ZM36.1314 75.1426C36.1695 72.0932 34.178 70.4873 30.8856 70.4702C27.589 70.4873 25.6017 72.0932 25.6398 75.1426V82.6424C25.6017 85.6918 27.5932 87.2977 30.8856 87.3148C34.1822 87.2977 36.1737 85.6918 36.1314 82.6424V75.1426ZM21.1695 75.1469C21.1695 68.8985 25.911 66.0157 30.9322 66.0157C35.9534 66.0157 40.6949 68.8985 40.6949 75.1469V75.7875V82.6338V90.0396C40.6949 90.992 39.928 91.7651 38.983 91.7651H37.9915C37.2754 91.7651 36.661 91.3209 36.4068 90.6931C35.0254 91.4148 32.6822 91.7651 30.9364 91.7651C25.9153 91.7651 21.1737 88.8822 21.1737 82.6338V75.1469H21.1695ZM44.0381 61.4073C43.1568 61.4073 42.4322 60.7368 42.3347 59.8783L42.3305 45.4298C42.3305 39.1814 47.072 36.2986 52.0932 36.2986C57.0678 36.2986 61.8093 39.1857 61.8093 45.4298V59.6819C61.8093 60.6343 61.0424 61.4073 60.0975 61.4073H59.1059C58.161 61.4073 57.3941 60.6343 57.3941 59.6819V45.4298C57.3941 42.3547 55.3602 40.7531 52.0975 40.7531C48.7627 40.7531 46.7161 42.3718 46.7542 45.3273V45.6989L46.75 59.6819C46.75 60.6343 45.983 61.4073 45.0381 61.4073H44.0381ZM36.1314 15.7426C36.1695 12.6932 34.178 11.0873 30.8856 11.0702C27.589 11.0873 25.6017 12.6932 25.6398 15.7426V23.2424C25.6017 26.2918 27.5932 27.8977 30.8856 27.9148C34.1822 27.8977 36.1737 26.2918 36.1314 23.2424V15.7426ZM21.1695 15.7469C21.1695 9.49853 25.911 6.61566 30.9322 6.61566C35.9534 6.61566 40.6949 9.49853 40.6949 15.7469V23.2338C40.6949 29.4822 35.9534 32.3651 30.9322 32.3651C25.911 32.3651 21.1695 29.4822 21.1695 23.2338V15.7469ZM57.3771 90.2532C55.572 91.2782 54.1398 91.7693 52.0424 91.7693C47.0678 91.7693 42.3263 88.8822 42.3263 82.6381V68.386C42.3263 67.4336 43.0932 66.6606 44.0381 66.6606H45.0297C45.9746 66.6606 46.7415 67.4336 46.7415 68.386V82.6381C46.7415 85.7132 48.7754 87.3148 52.0381 87.3148C55.3263 87.3148 57.3432 85.7431 57.3814 82.8773V82.369V79.2598L57.3856 68.3818C57.3856 67.4293 58.1525 66.6563 59.0975 66.6563H60.089C60.9703 66.6563 61.6949 67.3268 61.7924 68.1853L61.7966 79.2598V82.6338V89.9115C61.7966 95.6174 58.5212 99.2563 53.4703 98.9786C52.5508 98.8847 51.8263 98.1757 51.8263 97.2532V96.5528C51.8263 95.6003 52.6059 94.8273 53.5466 94.823C55.9703 94.8914 57.2246 92.931 57.3771 90.2532ZM5.59322 34.4663C5.59322 33.8257 6.07203 33.3004 6.68644 33.2321H12.5847C13.2669 33.2321 13.8178 33.7873 13.8178 34.4749V34.7354C13.8178 35.3761 13.339 35.9014 12.7246 35.9697H6.82627C6.14407 35.9697 5.59322 35.4145 5.59322 34.7269V34.4663Z"
            fill="white" />
    </g>
    <defs>
        <clipPath id="clip0_275_1110">
            <rect width="79" height="99" fill="white" />
        </clipPath>
    </defs>
</svg>